<svg width="24" height="25" viewBox="0 0 24 25" fill="none" xmlns="http://www.w3.org/2000/svg">
<rect y="0.466248" width="24" height="24" rx="12" fill="#6833B0"/>
<path fill-rule="evenodd" clip-rule="evenodd" d="M6.82641 11.3129C10.0657 9.90613 12.2222 8.97136 13.305 8.51785C16.387 7.23138 17.0349 7.00926 17.4514 7C17.5439 7 17.7475 7.01851 17.8864 7.12957C17.9974 7.22212 18.0252 7.34244 18.0437 7.43499C18.0622 7.52755 18.0807 7.7219 18.0622 7.86999C17.8956 9.62847 17.1737 13.8951 16.8035 15.8572C16.6462 16.6902 16.3407 16.9678 16.0446 16.9956C15.3967 17.0511 14.9062 16.5699 14.2861 16.1626C13.305 15.524 12.759 15.1261 11.8057 14.4967C10.7043 13.7748 11.417 13.3768 12.0463 12.729C12.2129 12.5624 15.0543 9.97092 15.1098 9.73954C15.1191 9.71177 15.1191 9.60071 15.0543 9.54518C14.9895 9.48965 14.8969 9.50816 14.8229 9.52667C14.7211 9.54518 13.1662 10.5818 10.1398 12.6272C9.69552 12.9326 9.29754 13.0807 8.93659 13.0714C8.53862 13.0621 7.77969 12.8493 7.20587 12.6642C6.51173 12.4421 5.95642 12.3217 6.0027 11.933C6.03046 11.7294 6.30812 11.5258 6.82641 11.3129Z" fill="white"/>
</svg>
