<svg width="24" height="25" viewBox="0 0 24 25" fill="none" xmlns="http://www.w3.org/2000/svg">
<rect y="0.466248" width="24" height="24" rx="12" fill="#6833B0"/>
<path fill-rule="evenodd" clip-rule="evenodd" d="M14.919 7.01743C14.919 7.03344 14.9132 7.03487 14.8471 7.03496C14.745 7.0351 14.7099 7.04206 14.7099 7.06216C14.7099 7.07686 14.7022 7.07845 14.6314 7.07845C14.5606 7.07845 14.553 7.08003 14.553 7.09474C14.553 7.11181 14.5188 7.12173 14.4593 7.12193C14.4368 7.12201 14.4309 7.12563 14.4309 7.13946C14.4309 7.15345 14.4251 7.15689 14.4015 7.15689C14.3504 7.15689 14.3194 7.16658 14.3149 7.18397C14.3114 7.19714 14.3025 7.20047 14.2705 7.20047C14.2363 7.20047 14.2305 7.203 14.2305 7.21791C14.2305 7.23276 14.2247 7.23534 14.1912 7.23534C14.1552 7.23534 14.152 7.23712 14.152 7.25713C14.152 7.27714 14.1488 7.27892 14.1128 7.27892C14.0802 7.27892 14.0736 7.28168 14.0736 7.29536C14.0736 7.30817 14.0649 7.3131 14.0343 7.31769C14.0034 7.32233 13.9951 7.32712 13.9951 7.34046C13.9951 7.35465 13.9889 7.35736 13.9565 7.35736C13.9231 7.35736 13.9175 7.36001 13.9151 7.37698C13.9133 7.38958 13.9053 7.39758 13.8927 7.39938C13.8801 7.40116 13.8731 7.40817 13.8731 7.41899C13.8731 7.43312 13.8668 7.43581 13.8339 7.43581C13.7979 7.43581 13.7947 7.43759 13.7947 7.4576C13.7947 7.47503 13.7903 7.47939 13.7729 7.47939C13.7572 7.47939 13.7511 7.48409 13.7511 7.49606C13.7511 7.50871 13.7427 7.51414 13.7162 7.51861C13.6897 7.52309 13.6813 7.52852 13.6813 7.54117C13.6813 7.55314 13.6752 7.55784 13.6596 7.55784C13.6436 7.55784 13.6378 7.56248 13.6378 7.57527C13.6378 7.58806 13.6319 7.5927 13.616 7.5927C13.5985 7.5927 13.5942 7.59706 13.5942 7.61449C13.5942 7.63192 13.5898 7.63628 13.5724 7.63628C13.5567 7.63628 13.5506 7.64098 13.5506 7.65295C13.5506 7.66556 13.5422 7.67103 13.5162 7.67542C13.4899 7.67987 13.4813 7.68562 13.4792 7.70016C13.4775 7.71209 13.4693 7.72012 13.4569 7.72188C13.4443 7.72366 13.4373 7.73067 13.4373 7.74149C13.4373 7.75362 13.4312 7.75831 13.4155 7.75831C13.3981 7.75831 13.3937 7.76267 13.3937 7.7801C13.3937 7.79608 13.3891 7.80189 13.3763 7.80189C13.3647 7.80189 13.3588 7.8077 13.3588 7.81932C13.3588 7.83211 13.353 7.83676 13.3371 7.83676C13.3196 7.83676 13.3153 7.84111 13.3153 7.85855C13.3153 7.8743 13.3106 7.88034 13.2984 7.88034C13.285 7.88034 13.2802 7.88858 13.2756 7.91956C13.2705 7.95345 13.2669 7.95878 13.2489 7.95878C13.2339 7.95878 13.2281 7.96365 13.2281 7.97622C13.2281 7.98783 13.2223 7.99365 13.2107 7.99365C13.1979 7.99365 13.1932 7.99946 13.1932 8.01544C13.1932 8.03115 13.1885 8.03723 13.1764 8.03723C13.1656 8.03723 13.1586 8.04424 13.1568 8.05684C13.155 8.06944 13.147 8.07745 13.1344 8.07924C13.1179 8.08158 13.1148 8.08741 13.1148 8.11567C13.1148 8.14394 13.1117 8.14977 13.0952 8.15211C13.0826 8.1539 13.0746 8.16191 13.0728 8.17451C13.0711 8.18663 13.0639 8.19412 13.0542 8.19412C13.0421 8.19412 13.0369 8.2034 13.0324 8.23334C13.0278 8.26432 13.023 8.27257 13.0097 8.27257C12.9974 8.27257 12.9928 8.27861 12.9928 8.29436C12.9928 8.3099 12.988 8.31615 12.9763 8.31615C12.9635 8.31615 12.9586 8.32482 12.954 8.35537C12.9493 8.38635 12.9446 8.39459 12.9312 8.39459C12.917 8.39459 12.9143 8.40081 12.9143 8.43321C12.9143 8.46662 12.9117 8.4722 12.8947 8.47461C12.8784 8.47693 12.8746 8.48365 12.8724 8.51444C12.8703 8.54342 12.8663 8.55148 12.8539 8.55148C12.8415 8.55148 12.8369 8.56092 12.8323 8.59507C12.8276 8.63062 12.8234 8.63865 12.8094 8.63865C12.7949 8.63865 12.7923 8.64469 12.7923 8.67787C12.7923 8.71128 12.7897 8.71709 12.7749 8.71709C12.761 8.71709 12.7574 8.72293 12.7573 8.74542C12.7571 8.80493 12.7472 8.83912 12.7301 8.83912C12.7159 8.83912 12.7138 8.84625 12.7138 8.89577C12.7138 8.9453 12.7118 8.95243 12.6976 8.95243C12.6801 8.95243 12.6705 8.98679 12.6704 9.05049C12.6703 9.07733 12.6671 9.08317 12.6528 9.08317C12.6365 9.08317 12.6354 9.08899 12.6354 9.17905C12.6354 9.26688 12.634 9.27493 12.6191 9.27493C12.5961 9.27493 12.592 9.30984 12.5919 9.50809C12.5918 9.67004 12.5912 9.67588 12.5744 9.67588C12.5582 9.67588 12.557 9.68169 12.557 9.75432C12.557 9.82695 12.5582 9.83277 12.5744 9.83277C12.5912 9.83277 12.5918 9.83861 12.5919 10.0006C12.592 10.1962 12.596 10.2305 12.619 10.2365C12.6338 10.2404 12.6354 10.2501 12.6354 10.3375C12.6354 10.4284 12.6364 10.4342 12.6528 10.4342C12.6673 10.4342 12.6703 10.44 12.6703 10.468C12.6703 10.5263 12.6795 10.5562 12.6975 10.5562C12.7119 10.5562 12.7138 10.5634 12.7138 10.6172C12.7138 10.671 12.7158 10.6782 12.7301 10.6782C12.7472 10.6782 12.7571 10.7124 12.7573 10.7719C12.7574 10.7944 12.761 10.8003 12.7749 10.8003C12.7897 10.8003 12.7923 10.8061 12.7923 10.8395C12.7923 10.872 12.7951 10.8787 12.8086 10.8787C12.8262 10.8787 12.8359 10.9085 12.8359 10.9626C12.8359 10.9859 12.8394 10.992 12.8527 10.992C12.8646 10.992 12.8704 10.9991 12.8723 11.016C12.8743 11.0332 12.8807 11.0408 12.8947 11.0428C12.9117 11.0452 12.9143 11.0507 12.9143 11.0842C12.9143 11.1164 12.9171 11.1228 12.931 11.1228C12.9436 11.1228 12.9491 11.1312 12.9535 11.1576C12.958 11.1841 12.9634 11.1925 12.9761 11.1925C12.9875 11.1925 12.9928 11.1986 12.9929 11.2121C12.9931 11.2471 13.0027 11.2692 13.0197 11.2737C13.0294 11.2762 13.0363 11.2857 13.0363 11.2963C13.0363 11.3087 13.0419 11.3145 13.0538 11.3145C13.0666 11.3145 13.0712 11.3203 13.0712 11.3363C13.0712 11.3521 13.0759 11.3581 13.0881 11.3581C13.1015 11.3581 13.1062 11.3663 13.1109 11.3973C13.1154 11.4273 13.1205 11.4365 13.1326 11.4365C13.1424 11.4365 13.1495 11.444 13.1512 11.4562C13.153 11.4688 13.161 11.4768 13.1736 11.4786C13.1878 11.4806 13.1932 11.4872 13.1932 11.5025C13.1932 11.5176 13.1981 11.5237 13.2099 11.5237C13.2225 11.5237 13.228 11.5321 13.2324 11.5581C13.2368 11.5844 13.2426 11.593 13.2571 11.5951C13.269 11.5968 13.2771 11.6051 13.2788 11.6174C13.2806 11.63 13.2876 11.637 13.2984 11.637C13.3092 11.637 13.3153 11.643 13.3153 11.6538C13.3153 11.6647 13.3223 11.6717 13.3349 11.6735C13.3475 11.6753 13.3555 11.6833 13.3573 11.6959C13.3591 11.7085 13.3661 11.7155 13.3769 11.7155C13.389 11.7155 13.3937 11.7215 13.3937 11.7373C13.3937 11.7547 13.3981 11.759 13.4155 11.759C13.4315 11.759 13.4373 11.7637 13.4373 11.7765C13.4373 11.7879 13.4431 11.7939 13.4541 11.7939C13.4649 11.7939 13.4719 11.8009 13.4737 11.8135C13.4755 11.8261 13.4835 11.8341 13.4961 11.8359C13.5085 11.8377 13.5157 11.8447 13.5157 11.855C13.5157 11.8676 13.5246 11.8726 13.555 11.8772C13.5855 11.8818 13.5942 11.8867 13.5942 11.8995C13.5942 11.9099 13.6003 11.9159 13.611 11.9159C13.6218 11.9159 13.6288 11.9229 13.6306 11.9356C13.6324 11.9482 13.6404 11.9562 13.653 11.958C13.6651 11.9597 13.6726 11.9668 13.6726 11.9766C13.6726 11.9887 13.6819 11.9938 13.7118 11.9983C13.7428 12.0029 13.7511 12.0077 13.7511 12.0211C13.7511 12.0333 13.7571 12.038 13.7729 12.038C13.7886 12.038 13.7947 12.0427 13.7947 12.0548C13.7947 12.0656 13.8017 12.0726 13.8143 12.0744C13.8269 12.0762 13.8349 12.0842 13.8367 12.0968C13.8391 12.1138 13.8446 12.1164 13.8781 12.1164C13.9105 12.1164 13.9167 12.1191 13.9167 12.1333C13.9167 12.1467 13.9249 12.1514 13.9559 12.1561C13.9854 12.1605 13.9951 12.1658 13.9951 12.1774C13.9951 12.1891 14.0048 12.1943 14.0343 12.1988C14.0653 12.2034 14.0736 12.2082 14.0736 12.2215C14.0736 12.2358 14.0798 12.2384 14.1128 12.2384C14.1454 12.2384 14.152 12.2412 14.152 12.2549C14.152 12.2677 14.1607 12.2726 14.1912 12.2772C14.2222 12.2819 14.2305 12.2866 14.2305 12.3C14.2305 12.3145 14.2367 12.3169 14.274 12.3169C14.3108 12.3169 14.3176 12.3194 14.3176 12.3332C14.3176 12.3498 14.3516 12.3602 14.407 12.3604C14.4251 12.3604 14.4309 12.3647 14.4309 12.3779C14.4309 12.3937 14.4367 12.3953 14.4919 12.3953C14.5458 12.3953 14.553 12.3972 14.553 12.4117C14.553 12.4311 14.5832 12.4389 14.6586 12.4389C14.704 12.4389 14.7099 12.4409 14.7099 12.4563C14.7099 12.4717 14.7157 12.4738 14.76 12.4739C14.8292 12.474 14.8755 12.4827 14.8755 12.4956C14.8755 12.5016 14.8877 12.5089 14.9027 12.5119C14.9177 12.5149 15.1334 12.5174 15.3821 12.5174C15.8167 12.5174 15.8342 12.5167 15.8342 12.5012C15.8342 12.4876 15.8436 12.4841 15.8931 12.4795C15.9254 12.4764 15.9705 12.4739 15.9933 12.4738C16.0289 12.4738 16.0347 12.4713 16.0347 12.4563C16.0347 12.4409 16.0405 12.4389 16.0859 12.4389C16.1614 12.4389 16.1916 12.4311 16.1916 12.4117C16.1916 12.3972 16.1988 12.3953 16.2526 12.3953C16.3064 12.3953 16.3136 12.3934 16.3136 12.379C16.3136 12.3624 16.3476 12.3521 16.403 12.3518C16.4211 12.3518 16.4269 12.3475 16.4269 12.3343C16.4269 12.3192 16.4328 12.3169 16.4705 12.3169C16.5078 12.3169 16.5141 12.3145 16.5141 12.3C16.5141 12.2866 16.5224 12.2819 16.5533 12.2772C16.5839 12.2726 16.5926 12.2677 16.5926 12.2549C16.5926 12.2412 16.5991 12.2384 16.6312 12.2384C16.6646 12.2384 16.6702 12.2358 16.6726 12.2188C16.6749 12.2025 16.6816 12.1988 16.7124 12.1965C16.7424 12.1944 16.7494 12.1906 16.7494 12.1769C16.7494 12.1647 16.7555 12.16 16.7712 12.16C16.7887 12.16 16.793 12.1556 16.793 12.1382C16.793 12.1182 16.7962 12.1164 16.8323 12.1164C16.8652 12.1164 16.8715 12.1137 16.8715 12.0996C16.8715 12.0888 16.8785 12.0818 16.8911 12.08C16.9037 12.0782 16.9117 12.0702 16.9135 12.0576C16.9159 12.0406 16.9215 12.038 16.9549 12.038C16.9903 12.038 16.9935 12.0361 16.9935 12.0162C16.9935 11.9987 16.9979 11.9944 17.0153 11.9944C17.0313 11.9944 17.0371 11.9897 17.0371 11.977C17.0371 11.9655 17.0429 11.9595 17.0539 11.9595C17.0647 11.9595 17.0717 11.9525 17.0735 11.9399C17.0753 11.9273 17.0833 11.9193 17.0959 11.9175C17.1082 11.9158 17.1155 11.9087 17.1155 11.8987C17.1155 11.8867 17.1245 11.8811 17.1504 11.8767C17.1769 11.8722 17.1853 11.8668 17.1853 11.8542C17.1853 11.8423 17.1914 11.8375 17.2064 11.8375C17.2218 11.8375 17.2284 11.8321 17.2304 11.8179C17.2322 11.8053 17.2402 11.7973 17.2528 11.7955C17.2654 11.7937 17.2724 11.7867 17.2724 11.7759C17.2724 11.7649 17.2784 11.759 17.2899 11.759C17.3026 11.759 17.3073 11.7532 17.3073 11.7373C17.3073 11.7198 17.3116 11.7155 17.3291 11.7155C17.3465 11.7155 17.3509 11.7111 17.3509 11.6937C17.3509 11.678 17.3556 11.6719 17.3675 11.6719C17.3801 11.6719 17.3856 11.6635 17.39 11.6375C17.3945 11.6112 17.4002 11.6026 17.4147 11.6005C17.4267 11.5988 17.4347 11.5905 17.4365 11.5782C17.4382 11.5656 17.4453 11.5586 17.4561 11.5586C17.4682 11.5586 17.4729 11.5525 17.4729 11.5368C17.4729 11.5194 17.4773 11.515 17.4947 11.515C17.5107 11.515 17.5165 11.5103 17.5165 11.4976C17.5165 11.4859 17.5223 11.4801 17.5339 11.4801C17.5467 11.4801 17.5513 11.4743 17.5513 11.4583C17.5513 11.4426 17.5466 11.4365 17.5345 11.4365C17.5237 11.4365 17.5167 11.4295 17.5149 11.4169C17.5131 11.4043 17.5051 11.3963 17.4925 11.3945C17.4799 11.3927 17.4729 11.3857 17.4729 11.3749C17.4729 11.3628 17.4668 11.3581 17.4511 11.3581C17.4337 11.3581 17.4293 11.3537 17.4293 11.3363C17.4293 11.3168 17.4258 11.3145 17.3951 11.3145C17.3662 11.3145 17.3604 11.3114 17.358 11.2949C17.3562 11.2823 17.3482 11.2743 17.3356 11.2725C17.323 11.2707 17.316 11.2637 17.316 11.2529C17.316 11.2408 17.3099 11.2361 17.2942 11.2361C17.2785 11.2361 17.2724 11.2314 17.2724 11.2192C17.2724 11.2058 17.2642 11.201 17.2332 11.1964C17.2033 11.1919 17.194 11.1868 17.194 11.1747C17.194 11.1649 17.1865 11.1578 17.1744 11.1561C17.1618 11.1543 17.1538 11.1463 17.152 11.1337C17.1502 11.1211 17.1432 11.114 17.1323 11.114C17.1213 11.114 17.1155 11.108 17.1155 11.0966C17.1155 11.0838 17.1097 11.0792 17.0937 11.0792C17.078 11.0792 17.0719 11.0745 17.0719 11.0623C17.0719 11.0489 17.0637 11.0442 17.0327 11.0395C16.9988 11.0344 16.9935 11.0308 16.9935 11.0128C16.9935 10.9965 16.9889 10.992 16.9717 10.992C16.9557 10.992 16.9499 10.9874 16.9499 10.9746C16.9499 10.9618 16.9441 10.9572 16.9281 10.9572C16.9126 10.9572 16.9063 10.9524 16.9063 10.9407C16.9063 10.9211 16.8638 10.9103 16.8208 10.9189C16.7953 10.924 16.793 10.9273 16.793 10.9582C16.793 10.9885 16.7907 10.992 16.7712 10.992C16.7538 10.992 16.7494 10.9964 16.7494 11.0138C16.7494 11.0295 16.7448 11.0356 16.7326 11.0356C16.7218 11.0356 16.7148 11.0426 16.713 11.0552C16.7112 11.0678 16.7032 11.0758 16.6906 11.0776C16.6783 11.0794 16.671 11.0864 16.671 11.0966C16.671 11.1068 16.6637 11.1139 16.6514 11.1156C16.6388 11.1174 16.6308 11.1254 16.629 11.138C16.6272 11.1506 16.6202 11.1576 16.6094 11.1576C16.5987 11.1576 16.5926 11.1636 16.5926 11.1741C16.5926 11.1869 16.5839 11.1918 16.5533 11.1964C16.5224 11.201 16.5141 11.2058 16.5141 11.2192C16.5141 11.2314 16.5081 11.2361 16.4923 11.2361C16.4749 11.2361 16.4705 11.2404 16.4705 11.2579C16.4705 11.2738 16.4659 11.2797 16.4531 11.2797C16.4418 11.2797 16.4357 11.2855 16.4357 11.2961C16.4357 11.3089 16.427 11.3138 16.3964 11.3184C16.3655 11.3231 16.3572 11.3279 16.3572 11.3412C16.3572 11.3534 16.3512 11.3581 16.3354 11.3581C16.3199 11.3581 16.3136 11.3628 16.3136 11.3745C16.3136 11.3874 16.305 11.3923 16.2744 11.3969C16.2434 11.4015 16.2352 11.4063 16.2352 11.4196C16.2352 11.4339 16.229 11.4365 16.196 11.4365C16.1632 11.4365 16.1567 11.4393 16.1567 11.4532C16.1567 11.4665 16.1481 11.471 16.1132 11.4758C16.0782 11.4806 16.0696 11.4851 16.0696 11.4984C16.0696 11.513 16.0628 11.515 16.0129 11.515C15.9634 11.515 15.9563 11.517 15.9563 11.5313C15.9563 11.5498 15.9215 11.5583 15.8451 11.5585C15.8064 11.5586 15.7994 11.5611 15.7994 11.5747C15.7994 11.5886 15.7898 11.5917 15.7327 11.5965C15.696 11.5996 15.6509 11.6022 15.6325 11.6022C15.6047 11.6022 15.5989 11.6052 15.5989 11.6196C15.5989 11.6366 15.5931 11.637 15.3374 11.637C15.0885 11.637 15.0759 11.6362 15.0759 11.6209C15.0759 11.6072 15.0666 11.6038 15.0171 11.5991C14.9847 11.5961 14.9396 11.5935 14.9169 11.5935C14.8813 11.5934 14.8755 11.591 14.8755 11.576C14.8755 11.5616 14.8696 11.5586 14.8417 11.5586C14.7833 11.5586 14.7534 11.5493 14.7534 11.5313C14.7534 11.5178 14.7467 11.515 14.7142 11.515C14.6808 11.515 14.675 11.5124 14.675 11.4976C14.675 11.4837 14.6692 11.4801 14.6467 11.48C14.5871 11.4798 14.553 11.4699 14.553 11.4528C14.553 11.4393 14.5462 11.4365 14.5137 11.4365C14.4777 11.4365 14.4745 11.4348 14.4745 11.4148C14.4745 11.3973 14.4702 11.393 14.4527 11.393C14.437 11.393 14.4309 11.3883 14.4309 11.376C14.4309 11.3623 14.4238 11.3586 14.3939 11.3564C14.3631 11.3542 14.3564 11.3504 14.3541 11.3341C14.352 11.3199 14.3454 11.3145 14.3301 11.3145C14.3147 11.3145 14.3089 11.3097 14.3089 11.2971C14.3089 11.2855 14.3031 11.2797 14.2915 11.2797C14.2787 11.2797 14.274 11.2738 14.274 11.2579C14.274 11.2379 14.2708 11.2361 14.2348 11.2361C14.1988 11.2361 14.1956 11.2343 14.1956 11.2143C14.1956 11.1969 14.1912 11.1925 14.1738 11.1925C14.1578 11.1925 14.152 11.1878 14.152 11.1751C14.152 11.1637 14.1462 11.1576 14.1352 11.1576C14.1244 11.1576 14.1174 11.1506 14.1156 11.138C14.1138 11.1254 14.1058 11.1174 14.0932 11.1156C14.0806 11.1138 14.0736 11.1068 14.0736 11.096C14.0736 11.085 14.0675 11.0792 14.0561 11.0792C14.0434 11.0792 14.0387 11.0734 14.0387 11.0574C14.0387 11.04 14.0343 11.0356 14.0169 11.0356C13.9969 11.0356 13.9951 11.0324 13.9951 10.9964C13.9951 10.9604 13.9933 10.9572 13.9733 10.9572C13.9559 10.9572 13.9515 10.9528 13.9515 10.9354C13.9515 10.9197 13.9469 10.9136 13.9347 10.9136C13.9239 10.9136 13.9169 10.9066 13.9151 10.894C13.9133 10.8814 13.9053 10.8734 13.8927 10.8716C13.8762 10.8692 13.8731 10.8634 13.8731 10.8345C13.8731 10.8068 13.87 10.8003 13.8567 10.8003C13.8438 10.8003 13.8389 10.7916 13.8343 10.761C13.8297 10.7301 13.8249 10.7218 13.8116 10.7218C13.7999 10.7218 13.7946 10.7158 13.7945 10.7022C13.7943 10.6672 13.7847 10.6451 13.7677 10.6406C13.7544 10.6372 13.7511 10.6283 13.7511 10.5963C13.7511 10.562 13.7485 10.5562 13.7336 10.5562C13.7188 10.5562 13.7162 10.5504 13.7162 10.517C13.7162 10.481 13.7144 10.4778 13.6944 10.4778C13.6732 10.4778 13.6726 10.476 13.6726 10.4168C13.6726 10.3627 13.6707 10.3557 13.6561 10.3557C13.6416 10.3557 13.6389 10.3463 13.6334 10.2773C13.6279 10.2083 13.6252 10.1988 13.6107 10.1988C13.5952 10.1988 13.5942 10.1904 13.5942 10.0594C13.5942 9.92574 13.5935 9.91993 13.5767 9.91993C13.5599 9.91993 13.5593 9.91412 13.5593 9.75868C13.5593 9.60324 13.5599 9.59743 13.5767 9.59743C13.5935 9.59743 13.5942 9.59162 13.5942 9.45797C13.5942 9.32752 13.5952 9.31851 13.6105 9.31851C13.6248 9.31851 13.6276 9.30871 13.6329 9.24006C13.6384 9.17058 13.641 9.16162 13.6558 9.16162C13.6708 9.16162 13.6726 9.15502 13.6726 9.10122C13.6726 9.04521 13.6741 9.0406 13.6922 9.03802C13.7101 9.03549 13.7121 9.02986 13.7144 8.9764C13.7166 8.926 13.7193 8.91757 13.733 8.91757C13.7454 8.91757 13.7505 8.90849 13.755 8.87834C13.7596 8.84737 13.7644 8.83912 13.7778 8.83912C13.7919 8.83912 13.7947 8.8329 13.7947 8.80051C13.7947 8.76709 13.7973 8.76151 13.8143 8.7591C13.8269 8.75731 13.8349 8.74931 13.8367 8.7367C13.8385 8.7241 13.8455 8.71709 13.8563 8.71709C13.8704 8.71709 13.8731 8.71082 13.8731 8.67848C13.8731 8.64506 13.8757 8.63948 13.8927 8.63708C13.9053 8.63528 13.9133 8.62728 13.9151 8.61468C13.9169 8.60231 13.9239 8.59507 13.9342 8.59507C13.9472 8.59507 13.9511 8.58747 13.9532 8.55802C13.9555 8.52723 13.9592 8.52051 13.9755 8.51819C13.9881 8.5164 13.9951 8.50939 13.9951 8.49858C13.9951 8.48757 14.0011 8.48175 14.0126 8.48175C14.0253 8.48175 14.03 8.47594 14.03 8.45996C14.03 8.44253 14.0343 8.43817 14.0518 8.43817C14.0692 8.43817 14.0736 8.43382 14.0736 8.41638C14.0736 8.40067 14.0783 8.39459 14.0904 8.39459C14.1012 8.39459 14.1082 8.38759 14.11 8.37498C14.1118 8.36238 14.1198 8.35438 14.1324 8.35258C14.145 8.35079 14.152 8.34379 14.152 8.33297C14.152 8.32084 14.1581 8.31615 14.1738 8.31615C14.1912 8.31615 14.1956 8.31179 14.1956 8.29436C14.1956 8.27838 14.2002 8.27257 14.213 8.27257C14.2246 8.27257 14.2305 8.26675 14.2305 8.25513C14.2305 8.24235 14.2363 8.2377 14.2523 8.2377C14.2697 8.2377 14.274 8.23334 14.274 8.21591C14.274 8.19848 14.2784 8.19412 14.2958 8.19412C14.3116 8.19412 14.3176 8.18944 14.3176 8.17718C14.3176 8.1635 14.3247 8.15974 14.3547 8.15757C14.3855 8.15535 14.3922 8.15159 14.3945 8.13529C14.3965 8.12109 14.4031 8.11567 14.4185 8.11567C14.4336 8.11567 14.4397 8.11086 14.4397 8.09877C14.4397 8.08543 14.4479 8.08064 14.4789 8.076C14.5094 8.07141 14.5181 8.06648 14.5181 8.05367C14.5181 8.03999 14.5247 8.03723 14.5573 8.03723C14.5903 8.03723 14.5965 8.03454 14.5965 8.02033C14.5965 8.00698 14.6048 8.0022 14.6358 7.99755C14.6663 7.99297 14.675 7.98803 14.675 7.97522C14.675 7.96236 14.6814 7.95878 14.7044 7.95878C14.7555 7.95878 14.7865 7.9491 14.7911 7.9317C14.7948 7.91762 14.8038 7.9152 14.8529 7.9152C14.9045 7.9152 14.9103 7.91344 14.9103 7.89777C14.9103 7.88279 14.9162 7.88033 14.9517 7.88028C14.9745 7.88024 15.0193 7.87774 15.0513 7.87472C15.0979 7.87031 15.1102 7.86602 15.1136 7.85299C15.1177 7.83756 15.1325 7.83676 15.415 7.83676C15.6987 7.83676 15.7122 7.83749 15.7122 7.85292C15.7122 7.86653 15.7216 7.86998 15.7711 7.87465C15.8034 7.87771 15.8485 7.88024 15.8713 7.88028C15.9069 7.88033 15.9127 7.88279 15.9127 7.89777C15.9127 7.91322 15.9185 7.9152 15.9639 7.9152C16.0364 7.9152 16.0673 7.92291 16.0724 7.94228C16.076 7.95637 16.0851 7.95878 16.1341 7.95878C16.1846 7.95878 16.1916 7.96078 16.1916 7.97522C16.1916 7.98803 16.2003 7.99297 16.2308 7.99755C16.2618 8.0022 16.2701 8.00698 16.2701 8.02033C16.2701 8.0348 16.2763 8.03723 16.3136 8.03723C16.351 8.03723 16.3572 8.03966 16.3572 8.05413C16.3572 8.06747 16.3655 8.07226 16.3964 8.0769C16.427 8.08149 16.4357 8.08642 16.4357 8.09924C16.4357 8.10948 16.4418 8.11567 16.452 8.11567C16.464 8.11567 16.4697 8.12417 16.4736 8.14836C16.4766 8.16634 16.4791 8.3718 16.4791 8.60494L16.4792 9.02885L16.4989 9.0341C16.5096 9.03699 16.7156 9.03941 16.9565 9.03947L17.3944 9.03959V8.37716C17.3944 7.72054 17.3943 7.71473 17.377 7.71473C17.3654 7.71473 17.3596 7.70892 17.3596 7.6973C17.3596 7.68451 17.3538 7.67986 17.3378 7.67986C17.3204 7.67986 17.316 7.67551 17.316 7.65807C17.316 7.64064 17.3116 7.63628 17.2942 7.63628C17.2785 7.63628 17.2724 7.63159 17.2724 7.61946C17.2724 7.60864 17.2654 7.60164 17.2528 7.59985C17.2402 7.59805 17.2322 7.59005 17.2304 7.57745C17.2281 7.56097 17.2222 7.55784 17.194 7.55784C17.1657 7.55784 17.1599 7.5547 17.1575 7.53823C17.1557 7.52562 17.1477 7.51762 17.1351 7.51582C17.123 7.51411 17.1155 7.507 17.1155 7.49721C17.1155 7.48512 17.1062 7.47998 17.0763 7.47549C17.0453 7.47084 17.0371 7.46606 17.0371 7.45271C17.0371 7.44049 17.031 7.43581 17.0153 7.43581C16.9998 7.43581 16.9935 7.43109 16.9935 7.41937C16.9935 7.40656 16.9848 7.40163 16.9543 7.39704C16.9233 7.39239 16.9151 7.38761 16.9151 7.37427C16.9151 7.36005 16.9088 7.35736 16.8758 7.35736C16.8432 7.35736 16.8366 7.3546 16.8366 7.34093C16.8366 7.32811 16.8279 7.32318 16.7974 7.31859C16.7664 7.31395 16.7582 7.30916 16.7582 7.29582C16.7582 7.28135 16.7519 7.27892 16.7146 7.27892C16.6778 7.27892 16.671 7.27637 16.671 7.26258C16.671 7.245 16.6412 7.23534 16.5871 7.23534C16.5642 7.23534 16.5577 7.23174 16.5577 7.21903C16.5577 7.20604 16.5488 7.20154 16.5141 7.19693C16.4786 7.19222 16.4705 7.188 16.4705 7.17403C16.4705 7.15863 16.4644 7.15689 16.4095 7.15689C16.3554 7.15689 16.3485 7.15501 16.3485 7.14038C16.3485 7.12587 16.339 7.12313 16.2701 7.11767C16.2011 7.11221 16.1916 7.10947 16.1916 7.09495C16.1916 7.07998 16.1843 7.07845 16.1132 7.07845C16.0426 7.07845 16.0347 7.07682 16.0347 7.06228C16.0347 7.04867 16.0254 7.04522 15.9759 7.04055C15.9435 7.03749 15.8886 7.03496 15.8539 7.03493C15.7965 7.03487 15.7907 7.03325 15.7907 7.01743C15.7907 7.00024 15.7849 7 15.3549 7C14.9249 7 14.919 7.00024 14.919 7.01743ZM6.4789 7.11908C6.47567 7.1223 6.47304 7.32235 6.47304 7.56365V8.00236H6.57328C6.6677 8.00236 6.67351 8.00337 6.67351 8.0198C6.67351 8.03258 6.67933 8.03723 6.6953 8.03723C6.71128 8.03723 6.71709 8.03258 6.71709 8.0198C6.71709 8.0027 6.72291 8.00236 7.0178 8.00236C7.3127 8.00236 7.31851 8.0027 7.31851 8.0198C7.31851 8.03465 7.32432 8.03723 7.35773 8.03723C7.39376 8.03723 7.39696 8.03901 7.39696 8.05902C7.39696 8.075 7.4016 8.08081 7.41439 8.08081C7.42838 8.08081 7.43182 8.08662 7.43182 8.11023C7.43182 8.16435 7.44149 8.19412 7.45906 8.19412C7.47349 8.19412 7.4754 8.20128 7.4754 8.25513C7.4754 8.30891 7.47734 8.31615 7.49169 8.31615C7.50832 8.31615 7.51867 8.35012 7.51889 8.40549C7.51896 8.42362 7.52324 8.42946 7.53642 8.42946C7.55152 8.42946 7.55385 8.43527 7.55385 8.47304C7.55385 8.50979 7.5564 8.51662 7.57014 8.51662C7.58721 8.51662 7.59713 8.5508 7.59733 8.61032C7.59741 8.63281 7.60103 8.63865 7.61486 8.63865C7.62869 8.63865 7.63231 8.64449 7.63239 8.66697C7.63259 8.72649 7.64251 8.76067 7.65958 8.76067C7.67383 8.76067 7.67588 8.7678 7.67588 8.81733C7.67588 8.86725 7.67785 8.87398 7.69249 8.87398C7.70582 8.87398 7.71029 8.8826 7.7151 8.91757C7.71991 8.95253 7.72438 8.96115 7.73771 8.96115C7.75246 8.96115 7.75432 8.96796 7.75432 9.02216C7.75432 9.07601 7.75624 9.08317 7.77066 9.08317C7.78824 9.08317 7.7979 9.11295 7.7979 9.16707C7.7979 9.19067 7.80135 9.19648 7.81534 9.19648C7.82977 9.19648 7.83277 9.2023 7.83277 9.23026C7.83277 9.28861 7.842 9.31851 7.86001 9.31851C7.87431 9.31851 7.87635 9.32558 7.87635 9.37517C7.87635 9.42548 7.87825 9.43182 7.8933 9.43182C7.90734 9.43182 7.91072 9.43893 7.91291 9.47322C7.91518 9.50855 7.91845 9.51504 7.93518 9.51741C7.95336 9.51999 7.95479 9.5246 7.95479 9.58061C7.95479 9.63385 7.95673 9.64101 7.97114 9.64101C7.98871 9.64101 7.99838 9.67078 7.99838 9.7249C7.99838 9.74851 8.00182 9.75432 8.01581 9.75432C8.03157 9.75432 8.03324 9.76013 8.03324 9.81472C8.03324 9.87073 8.03467 9.87534 8.05285 9.87792C8.07067 9.88045 8.0727 9.88608 8.07504 9.93954C8.0773 9.99123 8.07969 9.99837 8.09465 9.99837C8.10903 9.99837 8.11169 10.0045 8.11169 10.0376C8.11169 10.0736 8.11346 10.0768 8.13348 10.0768C8.15465 10.0768 8.15527 10.0786 8.15527 10.1378C8.15527 10.193 8.15692 10.1988 8.1727 10.1988C8.18669 10.1988 8.19013 10.2047 8.19013 10.2283C8.19013 10.2824 8.1998 10.3122 8.21737 10.3122C8.23178 10.3122 8.23371 10.3193 8.23371 10.3726C8.23371 10.4286 8.23514 10.4332 8.25332 10.4358C8.27114 10.4383 8.27317 10.4439 8.27552 10.4974C8.27777 10.5491 8.28016 10.5562 8.29513 10.5562C8.30955 10.5562 8.31216 10.5623 8.31216 10.5963C8.31216 10.6283 8.31547 10.6372 8.32879 10.6406C8.34803 10.6457 8.35545 10.6675 8.35562 10.7196C8.35572 10.7508 8.35849 10.7567 8.37317 10.7567C8.387 10.7567 8.39062 10.7625 8.3907 10.785C8.3909 10.8445 8.40082 10.8787 8.41789 10.8787C8.43214 10.8787 8.43419 10.8858 8.43419 10.9354C8.43419 10.9849 8.43623 10.992 8.45048 10.992C8.46755 10.992 8.47747 11.0262 8.47767 11.0857C8.47775 11.1082 8.48137 11.114 8.4952 11.114C8.5101 11.114 8.51263 11.1199 8.51263 11.1541C8.51263 11.186 8.51596 11.195 8.52913 11.1984C8.54653 11.203 8.55621 11.234 8.55621 11.2851C8.55621 11.3087 8.55966 11.3145 8.57365 11.3145C8.58808 11.3145 8.59108 11.3203 8.59108 11.3483C8.59108 11.4067 8.60031 11.4365 8.61832 11.4365C8.63262 11.4365 8.63466 11.4436 8.63466 11.4932C8.63466 11.5431 8.63664 11.5499 8.65127 11.5499C8.6646 11.5499 8.66907 11.5585 8.67388 11.5934C8.67869 11.6284 8.68316 11.637 8.69649 11.637C8.71125 11.637 8.7131 11.6438 8.7131 11.698C8.7131 11.7519 8.71502 11.759 8.72945 11.759C8.74745 11.759 8.75669 11.7889 8.75669 11.8473C8.75669 11.8753 8.75968 11.8811 8.77412 11.8811C8.78811 11.8811 8.79155 11.8869 8.79155 11.9105C8.79155 11.9646 8.80122 11.9944 8.81879 11.9944C8.83321 11.9944 8.83513 12.0016 8.83513 12.0554C8.83513 12.1096 8.83699 12.1164 8.85174 12.1164C8.86507 12.1164 8.86954 12.125 8.87435 12.16C8.87917 12.195 8.88364 12.2036 8.89696 12.2036C8.9116 12.2036 8.91358 12.2103 8.91358 12.2602C8.91358 12.3098 8.91562 12.3169 8.92992 12.3169C8.94793 12.3169 8.95716 12.3468 8.95716 12.4051C8.95716 12.4331 8.96016 12.4389 8.97459 12.4389C8.98621 12.4389 8.99202 12.4447 8.99202 12.4563C8.99202 12.4735 8.99784 12.4738 9.41476 12.4738C9.83168 12.4738 9.83749 12.4735 9.83749 12.4563C9.83749 12.4447 9.84331 12.4389 9.85493 12.4389C9.86936 12.4389 9.87236 12.4331 9.87236 12.4051C9.87236 12.3468 9.88159 12.3169 9.8996 12.3169C9.9134 12.3169 9.91594 12.3101 9.91594 12.2733C9.91594 12.2355 9.91827 12.2297 9.93337 12.2297C9.94655 12.2297 9.95083 12.2239 9.9509 12.2058C9.95112 12.1504 9.96147 12.1164 9.9781 12.1164C9.99232 12.1164 9.99439 12.1093 9.99439 12.0604C9.99439 12.0089 9.99598 12.0041 10.014 12.0015C10.0307 11.9992 10.034 11.9927 10.0363 11.9573C10.0384 11.9234 10.0419 11.9159 10.0555 11.9159C10.0699 11.9159 10.0724 11.9082 10.0746 11.8571C10.077 11.8036 10.079 11.798 10.0968 11.7955C10.1148 11.7929 10.1164 11.7881 10.1164 11.7366C10.1164 11.6873 10.1184 11.6806 10.133 11.6806C10.1464 11.6806 10.1508 11.672 10.1556 11.637C10.1604 11.6021 10.1649 11.5934 10.1782 11.5934C10.1929 11.5934 10.1949 11.5867 10.1949 11.5368C10.1949 11.4873 10.1969 11.4801 10.2112 11.4801C10.2282 11.4801 10.2381 11.4459 10.2383 11.3864C10.2384 11.3639 10.242 11.3581 10.2559 11.3581C10.2708 11.3581 10.2733 11.3523 10.2733 11.3181C10.2733 11.2861 10.2766 11.2772 10.2898 11.2737C10.3072 11.2692 10.3169 11.2382 10.3169 11.187C10.3169 11.1634 10.3203 11.1576 10.3343 11.1576C10.3482 11.1576 10.3518 11.1518 10.3518 11.1293C10.352 11.0698 10.362 11.0356 10.379 11.0356C10.3925 11.0356 10.3953 11.0289 10.3953 10.9964C10.3953 10.963 10.3979 10.9572 10.4128 10.9572C10.4266 10.9572 10.4302 10.9513 10.4303 10.9288C10.4305 10.8693 10.4404 10.8351 10.4575 10.8351C10.4717 10.8351 10.4738 10.828 10.4738 10.7791C10.4738 10.7276 10.4754 10.7228 10.4934 10.7203C10.5101 10.7179 10.5134 10.7114 10.5157 10.6761C10.5178 10.6421 10.5213 10.6347 10.5349 10.6347C10.5492 10.6347 10.5518 10.6269 10.554 10.5758C10.5563 10.5224 10.5584 10.5167 10.5762 10.5142C10.5942 10.5116 10.5958 10.5069 10.5958 10.4554C10.5958 10.4057 10.5977 10.3993 10.6128 10.3993C10.6268 10.3993 10.6302 10.3922 10.6324 10.3579C10.6346 10.3226 10.6379 10.3161 10.6546 10.3137C10.6727 10.3112 10.6743 10.3064 10.6743 10.2549C10.6743 10.206 10.6763 10.1988 10.6905 10.1988C10.7076 10.1988 10.7175 10.1647 10.7177 10.1051C10.7178 10.0827 10.7214 10.0768 10.7353 10.0768C10.7502 10.0768 10.7527 10.071 10.7527 10.0368C10.7527 10.0048 10.756 9.99587 10.7692 9.99243C10.7866 9.98788 10.7963 9.9569 10.7963 9.90577C10.7963 9.88216 10.7997 9.87635 10.8137 9.87635C10.8277 9.87635 10.8311 9.87053 10.8311 9.84693C10.8311 9.79281 10.8408 9.76304 10.8584 9.76304C10.8722 9.76304 10.8747 9.75626 10.8747 9.71946C10.8747 9.68169 10.8771 9.67588 10.8922 9.67588C10.906 9.67588 10.9096 9.67004 10.9097 9.64755C10.9099 9.58803 10.9198 9.55385 10.9369 9.55385C10.9511 9.55385 10.9532 9.54673 10.9532 9.4978C10.9532 9.44631 10.9548 9.44152 10.9728 9.43897C10.9906 9.43643 10.9926 9.4308 10.995 9.37735C10.9972 9.32626 10.9997 9.31851 11.0141 9.31851C11.0277 9.31851 11.0311 9.31104 11.0333 9.27711C11.0356 9.24178 11.0388 9.2353 11.0556 9.23292C11.0736 9.23036 11.0752 9.22558 11.0752 9.17408C11.0752 9.12516 11.0773 9.11804 11.0915 9.11804C11.1081 9.11804 11.1185 9.08406 11.1187 9.0287C11.1188 9.01057 11.123 9.00473 11.1362 9.00473C11.1513 9.00473 11.1536 8.99891 11.1536 8.96115C11.1536 8.92439 11.1562 8.91757 11.1699 8.91757C11.187 8.91757 11.1969 8.88338 11.1971 8.82387C11.1972 8.80138 11.2008 8.79554 11.2147 8.79554C11.2286 8.79554 11.2321 8.78972 11.2321 8.76612C11.2321 8.712 11.2418 8.68223 11.2593 8.68223C11.2731 8.68223 11.2757 8.67545 11.2757 8.63865C11.2757 8.60088 11.278 8.59507 11.2931 8.59507C11.3071 8.59507 11.3105 8.58925 11.3105 8.56565C11.3105 8.51153 11.3202 8.48175 11.3378 8.48175C11.3522 8.48175 11.3541 8.4746 11.3541 8.42135C11.3541 8.36534 11.3555 8.36074 11.3737 8.35816C11.3905 8.35578 11.3937 8.34929 11.396 8.31397C11.3982 8.27968 11.4016 8.27257 11.4156 8.27257C11.4306 8.27257 11.4326 8.26623 11.4326 8.21652C11.4326 8.16503 11.4342 8.16024 11.4522 8.15769C11.47 8.15515 11.472 8.14952 11.4744 8.09606C11.4768 8.0401 11.478 8.03723 11.4983 8.03723C11.5139 8.03723 11.5197 8.0325 11.5197 8.0198C11.5197 8.00261 11.5255 8.00236 11.9283 8.00236C12.153 8.00236 12.3491 7.99991 12.3641 7.99692L12.3913 7.99147V7.55789V7.12431L12.3587 7.11891C12.3162 7.11189 10.8718 7.11183 10.8293 7.11885L10.797 7.12419L10.7945 7.18194C10.7922 7.23429 10.7901 7.23996 10.7723 7.24248C10.7543 7.24504 10.7527 7.24982 10.7527 7.30132C10.7527 7.35155 10.7509 7.35736 10.7353 7.35736C10.7214 7.35736 10.7178 7.3632 10.7177 7.38569C10.7175 7.44521 10.7076 7.47939 10.6905 7.47939C10.6763 7.47939 10.6743 7.48652 10.6743 7.53605C10.6743 7.58557 10.6722 7.5927 10.658 7.5927C10.6409 7.5927 10.631 7.62689 10.6308 7.6864C10.6307 7.70889 10.6271 7.71473 10.6132 7.71473C10.5975 7.71473 10.5958 7.72054 10.5958 7.77574C10.5958 7.83501 10.5952 7.83676 10.574 7.83676C10.5528 7.83676 10.5522 7.8385 10.5522 7.89777C10.5522 7.95297 10.5506 7.95878 10.5348 7.95878C10.5208 7.95878 10.5174 7.9646 10.5174 7.9882C10.5174 8.04232 10.5077 8.07209 10.4901 8.07209C10.4757 8.07209 10.4738 8.07926 10.4738 8.13311C10.4738 8.18689 10.4718 8.19412 10.4575 8.19412C10.4404 8.19412 10.4305 8.22831 10.4303 8.28782C10.4302 8.31031 10.4266 8.31615 10.4128 8.31615C10.3979 8.31615 10.3953 8.32196 10.3953 8.35619C10.3953 8.38813 10.392 8.39709 10.3788 8.40054C10.3614 8.40509 10.3518 8.43606 10.3518 8.4872C10.3518 8.51081 10.3483 8.51662 10.3343 8.51662C10.3185 8.51662 10.3169 8.52243 10.3169 8.57763C10.3169 8.6369 10.3163 8.63865 10.2951 8.63865C10.2739 8.63865 10.2733 8.64039 10.2733 8.69966C10.2733 8.75344 10.2714 8.76067 10.257 8.76067C10.2404 8.76067 10.23 8.79465 10.2298 8.85001C10.2298 8.86814 10.2255 8.87398 10.2123 8.87398C10.1965 8.87398 10.1949 8.8798 10.1949 8.935C10.1949 8.98878 10.1929 8.99601 10.1786 8.99601C10.1615 8.99601 10.1516 9.0302 10.1514 9.08971C10.1513 9.1122 10.1477 9.11804 10.1338 9.11804C10.1199 9.11804 10.1164 9.12385 10.1164 9.14746C10.1164 9.19859 10.1067 9.22957 10.0893 9.23412C10.0752 9.2378 10.0728 9.24685 10.0728 9.2959C10.0728 9.34702 10.071 9.35338 10.0559 9.35338C10.0418 9.35338 10.0385 9.36049 10.0363 9.39478C10.034 9.4301 10.0307 9.43659 10.014 9.43897C9.99582 9.44155 9.99439 9.44615 9.99439 9.50216C9.99439 9.55541 9.99245 9.56256 9.97804 9.56256C9.96047 9.56256 9.95081 9.59234 9.95081 9.64646C9.95081 9.67006 9.94736 9.67588 9.93337 9.67588C9.9176 9.67588 9.91594 9.68169 9.91594 9.73689C9.91594 9.79074 9.91402 9.7979 9.8996 9.7979C9.88159 9.7979 9.87236 9.8278 9.87236 9.88615C9.87236 9.91412 9.86936 9.91993 9.85493 9.91993C9.84109 9.91993 9.83748 9.92577 9.8374 9.94826C9.8372 10.0078 9.82728 10.042 9.8102 10.042C9.79596 10.042 9.79391 10.0491 9.79391 10.0986C9.79391 10.1481 9.79187 10.1553 9.77762 10.1553C9.76055 10.1553 9.75063 10.1895 9.75043 10.249C9.75035 10.2712 9.74669 10.2773 9.7333 10.2773C9.71834 10.2773 9.71595 10.2844 9.71369 10.3361C9.71135 10.3896 9.70931 10.3952 9.6915 10.3978C9.67348 10.4003 9.67189 10.4051 9.67189 10.4566C9.67189 10.5068 9.67008 10.5126 9.65445 10.5126C9.64002 10.5126 9.63702 10.5184 9.63702 10.5464C9.63702 10.6048 9.62779 10.6347 9.60978 10.6347C9.59599 10.6347 9.59344 10.6414 9.59344 10.6782C9.59344 10.715 9.59089 10.7218 9.57713 10.7218C9.56333 10.7218 9.55991 10.7312 9.55482 10.7828C9.54964 10.8353 9.54644 10.8438 9.5319 10.8438C9.5169 10.8438 9.515 10.8502 9.515 10.9005C9.515 10.9507 9.51307 10.9572 9.49817 10.9572C9.48736 10.9572 9.48035 10.9642 9.47856 10.9768C9.47677 10.9894 9.46876 10.9974 9.45616 10.9992C9.43867 11.0017 9.43655 10.9982 9.43655 10.9676C9.43655 10.9086 9.42738 10.8787 9.40931 10.8787C9.39551 10.8787 9.39297 10.8719 9.39297 10.8351C9.39297 10.7974 9.39064 10.7915 9.37554 10.7915C9.36155 10.7915 9.3581 10.7857 9.3581 10.7621C9.3581 10.708 9.34844 10.6782 9.33087 10.6782C9.31644 10.6782 9.31452 10.6711 9.31452 10.6172C9.31452 10.5634 9.31259 10.5562 9.29823 10.5562C9.28116 10.5562 9.27124 10.522 9.27104 10.4625C9.27096 10.44 9.26734 10.4342 9.25351 10.4342C9.23784 10.4342 9.23608 10.4284 9.23608 10.3767C9.23608 10.3277 9.23366 10.3186 9.21958 10.3149C9.20218 10.3104 9.1925 10.2794 9.1925 10.2283C9.1925 10.2047 9.18905 10.1988 9.17506 10.1988C9.16123 10.1988 9.15761 10.193 9.15754 10.1705C9.15733 10.111 9.14742 10.0768 9.13034 10.0768C9.11598 10.0768 9.11405 10.0696 9.11405 10.0158C9.11405 9.96203 9.11211 9.95479 9.09776 9.95479C9.08113 9.95479 9.07078 9.92082 9.07056 9.86545C9.07049 9.84732 9.06622 9.84148 9.05304 9.84148C9.03726 9.84148 9.0356 9.83567 9.0356 9.78047C9.0356 9.7212 9.03499 9.71946 9.01381 9.71946C8.99264 9.71946 8.99202 9.71771 8.99202 9.65844C8.99202 9.60324 8.99037 9.59743 8.97459 9.59743C8.9606 9.59743 8.95716 9.59162 8.95716 9.56801C8.95716 9.51687 8.94747 9.4859 8.93008 9.48135C8.91691 9.4779 8.91358 9.46894 8.91358 9.437C8.91358 9.40277 8.91105 9.39696 8.89614 9.39696C8.88231 9.39696 8.8787 9.39112 8.87862 9.36863C8.87842 9.30911 8.8685 9.27493 8.85142 9.27493C8.83707 9.27493 8.83513 9.2677 8.83513 9.21392C8.83513 9.16007 8.83321 9.1529 8.81879 9.1529C8.80078 9.1529 8.79155 9.12301 8.79155 9.06465C8.79155 9.03669 8.78855 9.03088 8.77412 9.03088C8.75847 9.03088 8.75669 9.02506 8.75669 8.97422C8.75669 8.9196 8.7559 8.91757 8.73489 8.91757C8.71372 8.91757 8.7131 8.91582 8.7131 8.85655C8.7131 8.80135 8.71145 8.79554 8.69567 8.79554C8.68168 8.79554 8.67824 8.78972 8.67824 8.76612C8.67824 8.712 8.66857 8.68223 8.651 8.68223C8.63658 8.68223 8.63466 8.67506 8.63466 8.62121C8.63466 8.56744 8.63272 8.5602 8.61837 8.5602C8.60129 8.5602 8.59137 8.52602 8.59117 8.4665C8.59109 8.44424 8.58743 8.43817 8.57405 8.43817C8.55908 8.43817 8.55669 8.43103 8.55443 8.37934C8.55209 8.32588 8.55006 8.32025 8.53224 8.31772C8.51423 8.31516 8.51263 8.31038 8.51263 8.25888C8.51263 8.20917 8.51071 8.20284 8.49568 8.20284C8.48164 8.20284 8.47826 8.19572 8.47607 8.16143C8.4738 8.12611 8.47053 8.11962 8.4538 8.11724C8.43562 8.11466 8.43419 8.11006 8.43419 8.05405C8.43419 7.99946 8.43251 7.99365 8.41675 7.99365C8.40292 7.99365 8.3993 7.98781 8.39922 7.96532C8.39902 7.90581 8.38911 7.87162 8.37203 7.87162C8.35779 7.87162 8.35574 7.86449 8.35574 7.81497C8.35574 7.76538 8.3537 7.75831 8.3394 7.75831C8.32139 7.75831 8.31216 7.72841 8.31216 7.67006C8.31216 7.64236 8.3091 7.63628 8.29513 7.63628C8.28016 7.63628 8.27777 7.62914 8.27552 7.57745C8.27317 7.52399 8.27114 7.51836 8.25332 7.51582C8.23531 7.51327 8.23371 7.50849 8.23371 7.45699C8.23371 7.40676 8.23191 7.40095 8.21628 7.40095C8.20245 7.40095 8.19883 7.39511 8.19875 7.37262C8.19855 7.3131 8.18863 7.27892 8.17156 7.27892C8.1572 7.27892 8.15527 7.27168 8.15527 7.21791C8.15527 7.16344 8.15346 7.15689 8.13844 7.15689C8.12763 7.15689 8.12062 7.14988 8.11883 7.13728L8.11604 7.11767L7.3004 7.11545C6.85179 7.11423 6.48211 7.11586 6.4789 7.11908ZM6.83912 13.9991C6.83912 14.3942 6.83937 14.4001 6.85655 14.4001C6.86817 14.4001 6.87398 14.4059 6.87398 14.4175C6.87398 14.4347 6.8798 14.4349 7.29672 14.4349H7.71946V16.213V17.9911H7.30653C7.07942 17.9911 6.88134 17.9936 6.86636 17.9966L6.83912 18.002V18.4193C6.83912 18.8308 6.83936 18.8366 6.85655 18.8366C6.86817 18.8366 6.87398 18.8424 6.87398 18.854C6.87398 18.8714 6.8798 18.8715 8.89179 18.8715H10.9096V18.4357V17.9999L9.80481 17.9998C9.19718 17.9997 8.68533 17.9972 8.66734 17.9943L8.63466 17.9889V16.9135C8.63466 15.872 8.63516 15.8382 8.65083 15.8382C8.66443 15.8382 8.66788 15.8289 8.67256 15.7794C8.67562 15.747 8.67814 15.7019 8.67818 15.6792C8.67823 15.6436 8.6807 15.6378 8.69567 15.6378C8.71145 15.6378 8.7131 15.6319 8.7131 15.5767C8.7131 15.5229 8.71502 15.5157 8.72945 15.5157C8.74745 15.5157 8.75669 15.4858 8.75669 15.4275C8.75669 15.3995 8.75968 15.3937 8.77412 15.3937C8.78897 15.3937 8.79155 15.3879 8.79155 15.3545C8.79155 15.3185 8.79333 15.3153 8.81334 15.3153C8.83368 15.3153 8.83513 15.3124 8.83513 15.2717C8.83513 15.2346 8.83761 15.2281 8.8518 15.2281C8.86445 15.2281 8.86988 15.2197 8.87435 15.1932C8.87883 15.1668 8.88426 15.1584 8.89691 15.1584C8.91081 15.1584 8.91358 15.152 8.91358 15.1198C8.91358 15.0863 8.91622 15.0808 8.93319 15.0784C8.94579 15.0766 8.95379 15.0686 8.95559 15.056C8.95731 15.0438 8.96442 15.0363 8.97421 15.0363C8.9863 15.0363 8.99144 15.0271 8.99593 14.9971C9.00057 14.9661 9.00536 14.9579 9.0187 14.9579C9.03092 14.9579 9.0356 14.9519 9.0356 14.9361C9.0356 14.9187 9.03996 14.9143 9.05739 14.9143C9.07337 14.9143 9.07919 14.9097 9.07919 14.8969C9.07919 14.8853 9.085 14.8795 9.09662 14.8795C9.1094 14.8795 9.11405 14.8736 9.11405 14.8577C9.11405 14.8402 9.11841 14.8359 9.13584 14.8359C9.15182 14.8359 9.15763 14.8312 9.15763 14.8184C9.15763 14.8068 9.16344 14.801 9.17506 14.801C9.18785 14.801 9.1925 14.7952 9.1925 14.7792C9.1925 14.7618 9.19685 14.7574 9.21429 14.7574C9.23004 14.7574 9.23608 14.7527 9.23608 14.7405C9.23608 14.7272 9.24432 14.7224 9.2753 14.7177C9.30919 14.7127 9.31452 14.709 9.31452 14.6911C9.31452 14.6747 9.31916 14.6703 9.33631 14.6703C9.35229 14.6703 9.3581 14.6656 9.3581 14.6528C9.3581 14.6412 9.36392 14.6354 9.37554 14.6354C9.38681 14.6354 9.39297 14.6296 9.39297 14.619C9.39297 14.6061 9.40164 14.6012 9.43219 14.5966C9.46317 14.592 9.47141 14.5872 9.47141 14.5739C9.47141 14.5596 9.47765 14.557 9.51146 14.557C9.54385 14.557 9.55234 14.5537 9.55594 14.5399C9.55918 14.5276 9.5709 14.5213 9.59871 14.5171C9.62841 14.5127 9.63702 14.5077 9.63702 14.4949C9.63702 14.4809 9.64379 14.4785 9.68278 14.4784C9.75916 14.4783 9.79391 14.4697 9.79391 14.4512C9.79391 14.4362 9.80206 14.4349 9.89415 14.4349C9.98857 14.4349 9.99439 14.4339 9.99439 14.4175C9.99439 14.4013 10.0002 14.4001 10.0728 14.4001H10.1513V14.7182C10.1513 15.0305 10.151 15.0363 10.1338 15.0363C10.1177 15.0363 10.1164 15.0422 10.1164 15.1136V15.1909L10.1491 15.1964C10.1919 15.2034 10.969 15.2036 11.0044 15.1965L11.0316 15.1911V14.3946V13.5982H10.4912C9.95662 13.5982 9.95081 13.5984 9.95081 13.6156C9.95081 13.6308 9.94497 13.633 9.90505 13.6331C9.82867 13.6333 9.79391 13.6418 9.79391 13.6603C9.79391 13.675 9.78627 13.6766 9.71547 13.6766C9.64412 13.6766 9.63702 13.6781 9.63702 13.6932C9.63702 13.7066 9.6284 13.711 9.59344 13.7158C9.55848 13.7206 9.54986 13.7251 9.54986 13.7384C9.54986 13.7523 9.5434 13.7551 9.51064 13.7551C9.47764 13.7551 9.47141 13.7577 9.47141 13.772C9.47141 13.7853 9.46317 13.7901 9.43219 13.7947C9.40164 13.7993 9.39297 13.8043 9.39297 13.8171C9.39297 13.8307 9.38637 13.8335 9.35375 13.8335C9.31772 13.8335 9.31452 13.8353 9.31452 13.8553C9.31452 13.8753 9.31129 13.8771 9.27591 13.8771C9.24249 13.8771 9.23691 13.8797 9.23451 13.8967C9.23271 13.9093 9.22471 13.9173 9.21211 13.9191C9.19998 13.9208 9.1925 13.9279 9.1925 13.9377C9.1925 13.9498 9.18321 13.9549 9.15327 13.9594C9.1223 13.9641 9.11405 13.9689 9.11405 13.9822C9.11405 13.9933 9.10805 13.9991 9.09662 13.9991C9.085 13.9991 9.07919 14.0049 9.07919 14.0165C9.07919 14.0293 9.07337 14.034 9.05739 14.034C9.03996 14.034 9.0356 14.0383 9.0356 14.0558C9.0356 14.0732 9.03125 14.0776 9.01381 14.0776C8.99784 14.0776 8.99202 14.0822 8.99202 14.095C8.99202 14.1066 8.98621 14.1124 8.97459 14.1124C8.9618 14.1124 8.95716 14.1182 8.95716 14.1342C8.95716 14.1516 8.9528 14.156 8.93537 14.156C8.91965 14.156 8.91358 14.1607 8.91358 14.1728C8.91358 14.1836 8.90657 14.1907 8.89397 14.1924C8.88136 14.1942 8.87336 14.2022 8.87157 14.2148C8.86978 14.2274 8.86277 14.2345 8.85195 14.2345C8.83982 14.2345 8.83513 14.2405 8.83513 14.2562C8.83513 14.2737 8.83077 14.278 8.81334 14.278C8.79736 14.278 8.79155 14.2827 8.79155 14.2955C8.79155 14.3071 8.78574 14.3129 8.77412 14.3129C8.76133 14.3129 8.75669 14.3187 8.75669 14.3347C8.75669 14.3504 8.75201 14.3565 8.73978 14.3565C8.72644 14.3565 8.72165 14.3647 8.71701 14.3957C8.71252 14.4256 8.70738 14.4349 8.69529 14.4349C8.6855 14.4349 8.67839 14.4424 8.67667 14.4545C8.67487 14.4671 8.66687 14.4751 8.65427 14.4769C8.6373 14.4793 8.63466 14.4849 8.63466 14.5183C8.63466 14.5537 8.63283 14.557 8.61287 14.557C8.59544 14.557 8.59108 14.5613 8.59108 14.5787C8.59108 14.5947 8.58643 14.6005 8.57365 14.6005C8.55753 14.6005 8.55621 14.5947 8.55621 14.5234C8.55621 14.4057 8.54662 14.3129 8.53447 14.3129C8.51955 14.3129 8.51263 14.1757 8.51263 13.8801C8.51263 13.6388 8.51222 13.633 8.4952 13.633C8.48358 13.633 8.47777 13.6272 8.47777 13.6156C8.47777 13.5983 8.47195 13.5982 7.65844 13.5982H6.83912V13.9991ZM12.034 14.0557V14.5132L12.4309 14.5155L12.8278 14.5177L12.8273 15.6726C12.827 16.3078 12.8295 16.954 12.8327 17.1086C12.8383 17.3736 12.8396 17.3897 12.8547 17.3897C12.8683 17.3897 12.8707 17.3969 12.8707 17.4364C12.8707 17.462 12.8733 17.5072 12.8763 17.5366C12.881 17.581 12.8847 17.5902 12.8981 17.5902C12.9125 17.5902 12.9143 17.5977 12.9143 17.6556C12.9143 17.7151 12.9159 17.7209 12.9317 17.7209C12.9449 17.7209 12.9492 17.7268 12.9493 17.7449C12.9495 17.7996 12.9599 17.8342 12.9761 17.8342C12.9896 17.8342 12.9923 17.8429 12.9945 17.8931C12.9969 17.9465 12.9989 17.9522 13.0167 17.9547C13.0337 17.9571 13.0363 17.9627 13.0363 17.9961C13.0363 18.0281 13.0391 18.0347 13.0528 18.0347C13.0656 18.0347 13.0705 18.0434 13.0751 18.0739C13.0798 18.1049 13.0845 18.1132 13.0979 18.1132C13.1121 18.1132 13.1148 18.1194 13.1148 18.1518C13.1148 18.1852 13.1174 18.1908 13.1344 18.1932C13.147 18.195 13.155 18.203 13.1568 18.2156C13.1586 18.2282 13.1656 18.2352 13.1764 18.2352C13.1905 18.2352 13.1932 18.2415 13.1932 18.2744C13.1932 18.3104 13.195 18.3136 13.215 18.3136C13.2325 18.3136 13.2368 18.318 13.2368 18.3354C13.2368 18.3514 13.2415 18.3572 13.2542 18.3572C13.2657 18.3572 13.2717 18.363 13.2717 18.374C13.2717 18.3849 13.2787 18.3919 13.2913 18.3937C13.3039 18.3954 13.3119 18.4034 13.3137 18.4161C13.3154 18.4284 13.3225 18.4357 13.3327 18.4357C13.3429 18.4357 13.35 18.443 13.3517 18.4553C13.3535 18.4679 13.3615 18.4759 13.3741 18.4777C13.3867 18.4795 13.3937 18.4865 13.3937 18.4973C13.3937 18.5081 13.3997 18.5141 13.4105 18.5141C13.4213 18.5141 13.4284 18.5211 13.4301 18.5337C13.4319 18.5463 13.4399 18.5543 13.4525 18.5561C13.4649 18.5579 13.4722 18.5649 13.4722 18.5751C13.4722 18.5853 13.4794 18.5924 13.4918 18.5941C13.5044 18.5959 13.5124 18.6039 13.5142 18.6165C13.5162 18.6307 13.5228 18.6361 13.5381 18.6361C13.5532 18.6361 13.5593 18.641 13.5593 18.6528C13.5593 18.6655 13.5677 18.6709 13.5942 18.6754C13.6206 18.6798 13.629 18.6853 13.629 18.6979C13.629 18.7099 13.6352 18.7146 13.6508 18.7146C13.6664 18.7146 13.6726 18.7193 13.6726 18.731C13.6726 18.7438 13.6813 18.7488 13.7118 18.7534C13.7428 18.758 13.7511 18.7628 13.7511 18.7761C13.7511 18.7903 13.7573 18.793 13.7897 18.793C13.8231 18.793 13.8287 18.7957 13.8311 18.8126C13.8335 18.8294 13.84 18.8326 13.8753 18.8349C13.9085 18.837 13.9167 18.8407 13.9167 18.8534C13.9167 18.8705 13.9471 18.8802 14.0006 18.8802C14.0242 18.8802 14.03 18.8836 14.03 18.8976C14.03 18.9134 14.0358 18.9151 14.091 18.9151C14.1448 18.9151 14.152 18.917 14.152 18.9313C14.152 18.9502 14.1869 18.9584 14.2675 18.9585C14.3105 18.9586 14.3176 18.9609 14.3176 18.9749C14.3176 18.9901 14.331 18.9915 14.5304 18.9974C14.6474 19.0009 14.8279 19.0009 14.9314 18.9974C15.1067 18.9915 15.1195 18.9899 15.1195 18.9748C15.1195 18.9611 15.1265 18.9586 15.1653 18.9585C15.2417 18.9584 15.2764 18.9499 15.2764 18.9313C15.2764 18.9171 15.2835 18.9151 15.3331 18.9151C15.383 18.9151 15.3897 18.9131 15.3897 18.8984C15.3897 18.8851 15.3983 18.8806 15.4333 18.8758C15.4683 18.871 15.4769 18.8665 15.4769 18.8532C15.4769 18.8393 15.4833 18.8366 15.5161 18.8366C15.5491 18.8366 15.5553 18.8339 15.5553 18.8197C15.5553 18.8064 15.5636 18.8016 15.5946 18.7969C15.6241 18.7925 15.6338 18.7872 15.6338 18.7756C15.6338 18.764 15.6435 18.7587 15.673 18.7543C15.704 18.7496 15.7122 18.7448 15.7122 18.7315C15.7122 18.7193 15.7183 18.7146 15.734 18.7146C15.7497 18.7146 15.7558 18.7099 15.7558 18.6978C15.7558 18.6869 15.7628 18.6799 15.7754 18.6781C15.7878 18.6764 15.796 18.6684 15.7977 18.6564C15.7998 18.6419 15.8084 18.6361 15.8348 18.6317C15.8608 18.6273 15.8691 18.6218 15.8691 18.6092C15.8691 18.5973 15.8753 18.5926 15.8909 18.5926C15.9083 18.5926 15.9127 18.5882 15.9127 18.5708C15.9127 18.5548 15.9173 18.549 15.9301 18.549C15.9417 18.549 15.9476 18.5432 15.9476 18.5315C15.9476 18.5188 15.9534 18.5141 15.9693 18.5141C15.9868 18.5141 15.9911 18.5097 15.9911 18.4923C15.9911 18.4749 15.9955 18.4705 16.0129 18.4705C16.0289 18.4705 16.0347 18.4659 16.0347 18.4531C16.0347 18.4418 16.0405 18.4357 16.0512 18.4357C16.064 18.4357 16.0689 18.427 16.0735 18.3964C16.0781 18.3655 16.0829 18.3572 16.0963 18.3572C16.1085 18.3572 16.1132 18.3512 16.1132 18.3354C16.1132 18.318 16.1175 18.3136 16.135 18.3136C16.1524 18.3136 16.1567 18.3093 16.1567 18.2918C16.1567 18.2759 16.1614 18.2701 16.1742 18.2701C16.1887 18.2701 16.1916 18.2642 16.1916 18.2358C16.1916 18.2069 16.1947 18.2011 16.2112 18.1988C16.2238 18.197 16.2318 18.189 16.2336 18.1764C16.2353 18.1642 16.2425 18.1567 16.2522 18.1567C16.2643 18.1567 16.2695 18.1475 16.274 18.1175C16.2786 18.0865 16.2834 18.0783 16.2967 18.0783C16.309 18.0783 16.3136 18.0723 16.3136 18.0565C16.3136 18.0411 16.3184 18.0347 16.3298 18.0347C16.3436 18.0347 16.3468 18.0443 16.3516 18.1014C16.3547 18.1381 16.3572 18.191 16.3572 18.2191C16.3572 18.2642 16.3592 18.2701 16.3747 18.2701C16.3913 18.2701 16.3921 18.2759 16.3921 18.3929C16.3921 18.5061 16.3934 18.5161 16.4086 18.5201C16.4307 18.5258 16.4357 18.556 16.4357 18.6852C16.4357 18.7872 16.4366 18.793 16.4531 18.793C16.4679 18.793 16.4705 18.7988 16.4705 18.8322V18.8715H17.1722C17.868 18.8715 17.8738 18.8713 17.8738 18.854C17.8738 18.8424 17.8797 18.8366 17.8913 18.8366C17.9085 18.8366 17.9087 18.8308 17.9087 18.4194V18.0021L17.876 17.9967C17.858 17.9938 17.6972 17.9913 17.5187 17.9912L17.194 17.9911L17.1939 17.4834C17.1938 17.2042 17.1913 16.961 17.1884 16.943C17.1852 16.9238 17.1781 16.9103 17.171 16.9103C17.161 16.9103 17.1591 16.6543 17.1591 15.2815C17.1591 14.3856 17.1567 13.6404 17.1537 13.6254L17.1482 13.5982H16.2297H15.3113V14.0285C15.3113 14.2652 15.3137 14.4711 15.3167 14.4861L15.3221 14.5132L15.7765 14.5155L16.2308 14.5177L16.2335 15.568C16.2362 16.6434 16.2337 16.797 16.2137 16.797C16.1978 16.797 16.1916 16.8379 16.1916 16.9419C16.1916 17.0265 16.1905 17.0324 16.1742 17.0324C16.1597 17.0324 16.1567 17.0382 16.1567 17.0661C16.1567 17.1245 16.1475 17.1544 16.1295 17.1544C16.1151 17.1544 16.1132 17.1615 16.1132 17.2154C16.1132 17.2747 16.1125 17.2764 16.0914 17.2764C16.0714 17.2764 16.0696 17.2796 16.0696 17.3156C16.0696 17.349 16.067 17.3549 16.0522 17.3549C16.0373 17.3549 16.0347 17.3607 16.0347 17.3941C16.0347 17.4301 16.0329 17.4333 16.0129 17.4333C15.9955 17.4333 15.9911 17.4377 15.9911 17.4551C15.9911 17.4706 15.9864 17.4769 15.9747 17.4769C15.9619 17.4769 15.957 17.4856 15.9524 17.5161C15.9477 17.5471 15.9429 17.5553 15.9296 17.5553C15.9174 17.5553 15.9127 17.5614 15.9127 17.5771C15.9127 17.5928 15.908 17.5989 15.8959 17.5989C15.8851 17.5989 15.878 17.6059 15.8763 17.6185C15.8745 17.6311 15.8665 17.6391 15.8539 17.6409C15.8373 17.6433 15.8342 17.6491 15.8342 17.678C15.8342 17.7087 15.832 17.7122 15.8125 17.7122C15.795 17.7122 15.7907 17.7166 15.7907 17.734C15.7907 17.7514 15.7863 17.7558 15.7689 17.7558C15.7529 17.7558 15.7471 17.7604 15.7471 17.7732C15.7471 17.7848 15.7413 17.7907 15.7297 17.7907C15.7169 17.7907 15.7122 17.7965 15.7122 17.8125C15.7122 17.8325 15.709 17.8342 15.673 17.8342C15.637 17.8342 15.6338 17.836 15.6338 17.856C15.6338 17.8735 15.6294 17.8778 15.612 17.8778C15.5963 17.8778 15.5902 17.8825 15.5902 17.8946C15.5902 17.9055 15.5832 17.9125 15.5706 17.9143C15.558 17.9161 15.55 17.9241 15.5482 17.9367C15.5458 17.9532 15.54 17.9563 15.5111 17.9563C15.4834 17.9563 15.4769 17.9594 15.4769 17.9727C15.4769 17.9855 15.4682 17.9905 15.4377 17.995C15.4067 17.9997 15.3984 18.0045 15.3984 18.0178C15.3984 18.0321 15.3922 18.0347 15.3584 18.0347C15.326 18.0347 15.3175 18.038 15.3139 18.0517C15.3107 18.0641 15.2989 18.0704 15.2711 18.0745C15.2414 18.079 15.2328 18.084 15.2328 18.0967C15.2328 18.111 15.226 18.1132 15.1816 18.1132C15.1091 18.1132 15.0782 18.1209 15.0732 18.1402C15.0691 18.1559 15.057 18.1567 14.8283 18.1567C14.599 18.1567 14.5878 18.156 14.5878 18.1404C14.5878 18.121 14.5576 18.1132 14.4821 18.1132C14.4367 18.1132 14.4309 18.1112 14.4309 18.0957C14.4309 18.0809 14.4251 18.0783 14.3917 18.0783C14.3587 18.0783 14.3525 18.0756 14.3525 18.0614C14.3525 18.0481 14.3442 18.0433 14.3133 18.0386C14.2837 18.0342 14.274 18.0289 14.274 18.0173C14.274 18.0056 14.2643 18.0004 14.2348 17.9959C14.2038 17.9913 14.1956 17.9865 14.1956 17.9732C14.1956 17.961 14.1896 17.9563 14.1738 17.9563C14.1564 17.9563 14.152 17.9519 14.152 17.9345C14.152 17.9185 14.1474 17.9127 14.1346 17.9127C14.123 17.9127 14.1172 17.9069 14.1172 17.8953C14.1172 17.8825 14.1113 17.8778 14.0954 17.8778C14.0779 17.8778 14.0736 17.8735 14.0736 17.856C14.0736 17.8403 14.0689 17.8342 14.0567 17.8342C14.0433 17.8342 14.0385 17.826 14.0339 17.795C14.0293 17.7645 14.0244 17.7558 14.0116 17.7558C13.9998 17.7558 13.9951 17.7495 13.9951 17.734C13.9951 17.7166 13.9908 17.7122 13.9733 17.7122C13.9533 17.7122 13.9515 17.709 13.9515 17.673C13.9515 17.6404 13.9488 17.6338 13.9351 17.6338C13.9223 17.6338 13.9174 17.6251 13.9128 17.5945C13.9081 17.5636 13.9033 17.5553 13.89 17.5553C13.8749 17.5553 13.8731 17.5489 13.8731 17.4943C13.8731 17.4402 13.8712 17.4333 13.8566 17.4333C13.8421 17.4333 13.8393 17.4238 13.8339 17.3549C13.8284 17.2859 13.8257 17.2764 13.8112 17.2764C13.7958 17.2764 13.7946 17.2685 13.7946 17.1653C13.7944 17.0352 13.7884 16.9888 13.7717 16.9888C13.7617 16.9888 13.7598 16.7268 13.7598 15.3207C13.7598 14.4033 13.7573 13.6404 13.7543 13.6254L13.7489 13.5982H12.8914H12.034V14.0557ZM5.03486 17.9781C5.03486 17.994 5.03022 17.9999 5.01743 17.9999C5.00166 17.9999 5 18.0057 5 18.0609C5 18.1161 5.00166 18.1219 5.01743 18.1219C5.02905 18.1219 5.03486 18.1277 5.03486 18.1393C5.03486 18.1509 5.02905 18.1567 5.01743 18.1567C5.00029 18.1567 5 18.1626 5 18.513V18.8693L5.02724 18.8747C5.04222 18.8777 5.24372 18.8802 5.47503 18.8802C5.70634 18.8802 5.90785 18.8777 5.92283 18.8747L5.95007 18.8693V18.4346C5.95007 18.0057 5.94983 17.9999 5.93263 17.9999C5.91985 17.9999 5.9152 17.994 5.9152 17.9781V17.9563H5.47503H5.03486V17.9781Z" fill="white"/>
</svg>
